<?xml version="1.0" standalone="no"?>
<!DOCTYPE svg PUBLIC "-//W3C//DTD SVG 20010904//EN"
 "http://www.w3.org/TR/2001/REC-SVG-20010904/DTD/svg10.dtd">
<svg version="1.0" xmlns="http://www.w3.org/2000/svg"
 width="700.000000pt" height="700.000000pt" viewBox="0 0 700.000000 700.000000"
 preserveAspectRatio="xMidYMid meet">
<metadata>
Created by potrace 1.14, written by Peter Selinger 2001-2017
</metadata>
<g transform="translate(0.000000,700.000000) scale(0.100000,-0.100000)"
fill="#000000" stroke="none">
<path d="M1830 4995 c-203 -41 -334 -144 -382 -299 -27 -89 -21 -190 16 -271
31 -69 107 -145 174 -176 29 -13 52 -26 52 -29 -1 -3 -23 -15 -50 -28 -59 -28
-152 -110 -187 -166 -81 -128 -92 -301 -27 -435 60 -121 211 -223 383 -257
114 -22 336 -15 433 14 134 40 233 107 290 194 43 65 57 105 68 183 24 192
-70 368 -249 464 l-62 33 63 30 c80 37 150 110 179 186 28 72 30 204 5 272
-56 152 -202 256 -407 289 -85 14 -218 12 -299 -4z m357 -108 c174 -48 276
-159 275 -300 0 -141 -83 -238 -247 -290 -59 -18 -93 -22 -220 -22 -128 0
-161 3 -221 22 -182 58 -278 190 -244 340 30 136 149 229 337 263 65 12 256 4
320 -13z m-2 -738 c96 -23 171 -67 235 -137 63 -68 90 -139 90 -236 0 -219
-198 -356 -515 -356 -199 0 -350 52 -440 152 -58 64 -78 127 -74 226 13 280
334 441 704 351z"/>
<path d="M3425 4996 c-259 -60 -438 -264 -511 -581 -15 -63 -19 -118 -18 -260
1 -161 4 -191 27 -280 15 -55 48 -143 73 -195 39 -79 61 -109 133 -180 130
-130 258 -183 436 -183 305 1 548 206 634 539 66 253 45 554 -54 763 -88 185
-210 300 -380 359 -88 30 -250 39 -340 18z m270 -101 c100 -26 165 -64 245
-145 120 -120 177 -256 200 -482 19 -187 -18 -411 -93 -553 -18 -35 -63 -92
-107 -136 -112 -113 -221 -159 -375 -159 -277 0 -485 186 -557 501 -30 132
-30 354 1 489 46 205 160 368 311 446 100 52 261 68 375 39z"/>
<path d="M4561 4593 c-35 -214 -65 -400 -68 -415 -4 -21 0 -29 23 -41 28 -15
30 -14 83 35 61 56 147 102 218 119 69 15 228 13 296 -5 181 -49 298 -175 329
-355 40 -231 -117 -449 -360 -500 -73 -15 -226 -14 -289 3 -134 36 -232 118
-296 248 l-38 77 -37 -16 c-20 -8 -40 -18 -44 -22 -4 -4 11 -45 34 -91 102
-205 287 -313 533 -313 185 1 323 52 436 163 239 234 205 643 -68 822 -86 57
-158 84 -267 99 -132 18 -290 -10 -393 -71 -20 -11 -38 -19 -40 -16 -4 4 64
435 83 528 l6 28 371 2 372 3 3 53 3 52 -413 0 -414 0 -63 -387z"/>
<path d="M4765 2996 c-71 -32 -98 -88 -125 -264 -25 -160 -25 -206 0 -257 27
-56 70 -80 145 -80 68 0 120 25 156 76 l21 30 -23 25 c-28 30 -43 30 -62 1
-38 -58 -129 -58 -156 -2 -12 25 -12 47 -2 143 22 199 50 252 133 252 32 0 46
-6 70 -32 28 -31 31 -31 56 -17 15 8 28 22 30 31 4 20 -42 74 -79 93 -35 18
-124 19 -164 1z"/>
<path d="M5260 2999 c-50 -20 -97 -83 -113 -150 -13 -52 -37 -244 -37 -288 1
-62 31 -126 69 -146 80 -41 184 -26 241 34 42 44 54 79 75 218 30 204 17 278
-57 323 -36 22 -133 27 -178 9z m130 -89 c35 -19 41 -66 25 -185 -26 -195 -45
-232 -123 -242 -34 -5 -45 -1 -66 20 -21 21 -26 36 -26 77 0 59 26 237 39 273
21 55 100 84 151 57z"/>
<path d="M1486 2798 c-15 -112 -33 -245 -40 -295 -7 -51 -11 -95 -8 -98 10 -9
71 -5 77 5 5 9 33 181 35 213 0 4 15 7 34 7 l34 0 38 -112 39 -113 43 -3 c53
-4 53 2 7 126 -19 51 -35 96 -35 101 0 6 18 20 40 32 55 31 80 85 80 175 0
130 -44 164 -213 164 l-104 0 -27 -202z m232 96 c32 -22 31 -102 -2 -140 -20
-24 -32 -28 -91 -32 -62 -4 -67 -3 -62 14 3 11 8 42 12 69 13 109 11 105 69
105 30 0 61 -6 74 -16z"/>
<path d="M2035 2988 c-5 -18 -75 -542 -75 -567 0 -20 5 -21 159 -21 156 0 159
0 165 23 3 12 6 32 6 45 0 22 -2 22 -116 22 l-117 0 7 71 c4 39 10 77 13 85 4
11 28 14 103 14 106 0 110 2 110 61 l0 29 -101 0 -101 0 5 33 c3 17 9 53 13
80 l6 47 114 0 c124 0 134 5 134 64 l0 26 -160 0 c-120 0 -162 -3 -165 -12z"/>
<path d="M2645 2968 c-168 -404 -225 -545 -225 -555 0 -8 15 -13 41 -13 39 0
41 1 64 55 l25 55 93 0 94 0 9 -52 c9 -51 10 -53 43 -56 18 -2 37 0 42 5 5 5
-9 135 -33 301 l-41 292 -49 0 c-46 0 -50 -2 -63 -32z m64 -215 c7 -65 15
-126 17 -135 5 -16 -3 -18 -69 -18 l-75 0 52 135 c28 74 54 135 57 135 3 0 11
-53 18 -117z"/>
<path d="M3075 2978 c-14 -64 -75 -560 -70 -568 4 -6 69 -10 154 -10 146 0
149 0 155 23 3 12 6 32 6 45 0 21 -3 22 -110 22 -98 0 -110 2 -110 18 0 9 14
114 30 232 39 277 39 260 -10 260 -33 0 -40 -4 -45 -22z"/>
<path d="M3424 2966 c-3 -19 -3 -39 1 -45 3 -6 33 -11 66 -11 44 0 59 -4 59
-14 0 -8 -13 -113 -30 -233 -39 -281 -39 -263 10 -263 36 0 39 2 45 33 7 39
65 459 65 470 0 4 29 7 64 7 36 0 67 3 69 8 2 4 7 24 11 45 l7 37 -180 0 -180
0 -7 -34z"/>
<path d="M3896 2978 c4 -13 30 -88 58 -168 l52 -146 -17 -124 c-10 -69 -15
-128 -13 -132 7 -11 72 -10 78 1 3 5 13 62 22 127 l16 117 104 167 c57 92 104
170 104 174 0 3 -22 6 -49 6 l-48 0 -68 -116 c-37 -63 -71 -112 -74 -107 -4 4
-22 56 -41 116 l-34 107 -49 0 c-46 0 -48 -1 -41 -22z"/>
</g>
</svg>
