<svg id="Layer_1" data-name="Layer 1" xmlns="http://www.w3.org/2000/svg" viewBox="0 0 500.14 500.14"><defs><style>.cls-1{fill:#eaebf0;}.cls-2{fill:#c1bec6;}.cls-3{fill:#565859;stroke:#eaebf0;stroke-width:0.25px;}.cls-3,.cls-5{stroke-miterlimit:10;}.cls-4{fill:#aaa8b0;}.cls-5{fill:#0e84bf;stroke:#0e84bf;stroke-width:2px;}</style></defs><rect class="cls-1" x="18.9" y="16.81" width="457.01" height="345.34"/><rect class="cls-2" x="18.9" y="12.78" width="457.91" height="464.08"/><path class="cls-1" d="M165.76,156V656.16H665.9V156Zm459,460.11H202.51V193.91H624.72Z" transform="translate(-165.76 -156.02)"/><rect class="cls-1" x="44.47" y="45.62" width="406.78" height="406.78"/><path class="cls-3" d="M293.32,482.91c.39,1-.05,1.76-1,1.76h-4.58a1.47,1.47,0,0,1-1.46-1.17l-4.91-15.11h-4.64l-2.06,14.91c-.11.92-.56,1.37-1.34,1.37h-4.08c-.89,0-1.34-.58-1.17-1.63l5.47-40.24c.11-.91.56-1.37,1.34-1.37h10.17c7.81,0,11.89,3.84,11.89,11.59,0,8.14-2.9,13-9.21,14.65Zm-8.93-34.71h-4.92l-1.84,13.42h4.86c5.3,0,7.76-2.48,7.76-7.82C290.25,450,288.35,448.2,284.39,448.2Z" transform="translate(-165.76 -156.02)"/><path class="cls-3" d="M328.5,459.4c.9,0,1.34.59,1.17,1.63l-.5,3.78c-.11.91-.56,1.37-1.34,1.37H314.37l-1.62,11.72H328.5c.9,0,1.34.59,1.17,1.63l-.55,3.77c-.12.92-.56,1.37-1.34,1.37H306.61c-.89,0-1.34-.58-1.17-1.63l5.47-40.24c.11-.91.56-1.37,1.34-1.37h21.17c.89,0,1.34.59,1.17,1.63l-.5,3.77c-.11.92-.56,1.37-1.34,1.37H316.83l-1.56,11.2Z" transform="translate(-165.76 -156.02)"/><path class="cls-3" d="M368.77,483c.16,1-.28,1.63-1.18,1.63H363.4c-.78,0-1.22-.45-1.34-1.37l-.78-6.44H348l-2.62,6.7a1.52,1.52,0,0,1-1.51,1.11h-4.41c-1,0-1.4-.71-.95-1.76l16.75-40.37a1.51,1.51,0,0,1,1.51-1.11h4.91c.78,0,1.23.46,1.34,1.37ZM358,450.61l-7.48,19.6h9.94l-2.35-19.6Z" transform="translate(-165.76 -156.02)"/><path class="cls-3" d="M402.72,483.3c-.11.92-.56,1.37-1.34,1.37H381.05c-.89,0-1.34-.58-1.17-1.63l5.47-40.24c.11-.91.56-1.37,1.34-1.37h4.08c.89,0,1.34.59,1.17,1.63l-4.75,34.84H402.1c.9,0,1.34.59,1.18,1.63Z" transform="translate(-165.76 -156.02)"/><path class="cls-3" d="M421.31,483.3c-.11.92-.55,1.37-1.34,1.37H415.9c-.9,0-1.34-.58-1.18-1.63l4.75-34.84h-8.32c-.89,0-1.34-.58-1.17-1.63l.5-3.77c.11-.91.56-1.37,1.34-1.37h23.51c.9,0,1.34.59,1.17,1.63l-.55,3.77c-.12.92-.56,1.37-1.34,1.37h-8.49Z" transform="translate(-165.76 -156.02)"/><path class="cls-3" d="M456.05,483.3c-.11.92-.56,1.37-1.34,1.37h-4.08c-.89,0-1.34-.58-1.17-1.63l2.34-17.19-8-22.66c-.39-1,.06-1.76,1-1.76h4.74A1.47,1.47,0,0,1,451,442.6l5.08,15.89,9.49-16.08a1.59,1.59,0,0,1,1.57-1H472c1.12,0,1.45.78.84,1.82l-14.52,23.38Z" transform="translate(-165.76 -156.02)"/><path class="cls-3" d="M515,474.25c.5-.84,1.12-1,1.79-.39l2.73,2.35a1.44,1.44,0,0,1,.28,2.08c-3.07,4.95-6.87,7.16-12.23,7.16-7.54,0-11.95-4.56-11.95-12.5a26,26,0,0,1,.28-3.45L497.76,456c1.34-10.09,6.2-15.3,14.86-15.3,5.3,0,9.21,2.6,11.11,7.55a1.46,1.46,0,0,1-.61,2L520,452.11c-.73.46-1.28.2-1.68-.72a6.24,6.24,0,0,0-6.08-4c-4.41,0-7.1,3.26-8,9.64l-1.62,12.05a16.76,16.76,0,0,0-.22,2.73c0,4.5,1.9,6.84,5.64,6.84C511,478.68,513.23,477.18,515,474.25Z" transform="translate(-165.76 -156.02)"/><path class="cls-3" d="M532.61,456c1.34-10.09,6.31-15.3,15-15.3,7.87,0,12.39,4.56,12.39,12.57a23.73,23.73,0,0,1-.22,3.38l-1.84,13.55c-1.4,10.09-6.37,15.3-15,15.3-7.93,0-12.4-4.56-12.4-12.57a23.8,23.8,0,0,1,.23-3.38Zm4.86,13.16a24.51,24.51,0,0,0-.17,2.73c0,4.63,2,6.84,5.92,6.84,4.69,0,7.32-3.19,8.21-9.64L553.05,457a17.2,17.2,0,0,0,.22-2.86c0-4.5-2-6.71-6-6.71-4.69,0-7.32,3.19-8.21,9.64Z" transform="translate(-165.76 -156.02)"/><path class="cls-4" d="M481.88,527.68h2.67v3.16h-2.67v-3.16Z" transform="translate(-165.76 -156.02)"/><path class="cls-4" d="M506.4,525.16a10.54,10.54,0,0,1-1.94,2.64,9.24,9.24,0,0,1-6.6,3,8.74,8.74,0,0,1-6.91-3.7,16.3,16.3,0,0,1,0-19.1,8.52,8.52,0,0,1,6.87-3.65,8.74,8.74,0,0,1,4.43,1.28,9.64,9.64,0,0,1,4.07,4.44l-2.4,1.4a6.2,6.2,0,0,0-1.23-1.83,6.67,6.67,0,0,0-4.87-2.18A6.31,6.31,0,0,0,493,510a11.65,11.65,0,0,0-2.41,7.5,12.37,12.37,0,0,0,1.9,6.81c1.45,2.2,3.25,3.31,5.41,3.31a6.1,6.1,0,0,0,2.73-.67,7.13,7.13,0,0,0,3.47-3.38Z" transform="translate(-165.76 -156.02)"/><path class="cls-4" d="M513,508a8.63,8.63,0,0,1,6.91-3.65,8.79,8.79,0,0,1,6.93,3.69,16.32,16.32,0,0,1,0,19.1,8.59,8.59,0,0,1-6.9,3.66,8.81,8.81,0,0,1-6.94-3.7,16.32,16.32,0,0,1,0-19.1Zm1.5,16.42q2.18,3.27,5.41,3.27a6.35,6.35,0,0,0,4.9-2.61,11.63,11.63,0,0,0,2.43-7.51,12.2,12.2,0,0,0-1.93-6.84q-2.17-3.27-5.4-3.27A6.32,6.32,0,0,0,515,510a11.61,11.61,0,0,0-2.43,7.5A12.21,12.21,0,0,0,514.5,524.38Z" transform="translate(-165.76 -156.02)"/><path class="cls-4" d="M537.92,530.76h-2.67V504.31h2.2l.33.93,7.81,20.15,7.77-20.15.33-.93h2.2v1.55l0,23.34v1.56h-2.67V529.2l0-16.1-6.44,16.72-.33.94h-1.74l-.33-.94-6.47-16.72v17.66Z" transform="translate(-165.76 -156.02)"/><path class="cls-5" d="M348,399.39a28.47,28.47,0,0,1-8.62,10.18A41.93,41.93,0,0,1,325.91,416a63.58,63.58,0,0,1-17.64,2.28,65.22,65.22,0,0,1-17-2.11,41.14,41.14,0,0,1-13.56-6.28,29.91,29.91,0,0,1-9-10.17,28.92,28.92,0,0,1-3.22-13.85,30.62,30.62,0,0,1,2-11.24,31.89,31.89,0,0,1,5.46-9.2,32.76,32.76,0,0,1,8-6.76,36.54,36.54,0,0,1,9.61-4.07,34.88,34.88,0,0,1-8.43-3.34,27.07,27.07,0,0,1-6.91-5.45,25,25,0,0,1-4.67-7.5,25.45,25.45,0,0,1-1.71-9.61,26.25,26.25,0,0,1,2.7-11.8,26.93,26.93,0,0,1,7.7-9.37,38.42,38.42,0,0,1,12.31-6.19,61.68,61.68,0,0,1,33.23,0,38.4,38.4,0,0,1,12.38,6.19,27,27,0,0,1,7.7,9.37,28.11,28.11,0,0,1,1,21.66,23.67,23.67,0,0,1-4.67,7.49,25.57,25.57,0,0,1-7,5.29,38.89,38.89,0,0,1-8.69,3.26,36.49,36.49,0,0,1,17.9,10.75,29.37,29.37,0,0,1,5.6,9.12,31.05,31.05,0,0,1,2,11.4A29.67,29.67,0,0,1,348,399.39Zm-3.95-23.78a26.46,26.46,0,0,0-6.91-9.36,36.18,36.18,0,0,0-11.85-6.76,57,57,0,0,0-34.09,0,36.18,36.18,0,0,0-11.85,6.76A26.42,26.42,0,0,0,270.23,386v.17a22.48,22.48,0,0,0,2.69,11.07,26,26,0,0,0,7.64,8.47,35.85,35.85,0,0,0,12,5.46,67.09,67.09,0,0,0,31.46,0,36,36,0,0,0,12-5.46,25.7,25.7,0,0,0,7.63-8.55,23,23,0,0,0,2.7-11.16A26.29,26.29,0,0,0,344.07,375.61Zm-3.36-56.19a22.13,22.13,0,0,0-6.51-7.74,33.54,33.54,0,0,0-10.86-5.29,59.21,59.21,0,0,0-30.14,0,33.34,33.34,0,0,0-10.86,5.29,22.16,22.16,0,0,0-6.52,7.74,20.67,20.67,0,0,0-2.17,9.28v.17a19.93,19.93,0,0,0,2.1,9,20.89,20.89,0,0,0,6.39,7.41,33.46,33.46,0,0,0,10.79,5,63.48,63.48,0,0,0,30.67,0,33.52,33.52,0,0,0,10.8-5,20.51,20.51,0,0,0,6.31-25.82Z" transform="translate(-165.76 -156.02)"/><path class="cls-5" d="M464.05,383.75a56.86,56.86,0,0,1-9.94,18.73,43.84,43.84,0,0,1-14.94,11.81,44.36,44.36,0,0,1-37.51,0,43.84,43.84,0,0,1-14.94-11.81,56.49,56.49,0,0,1-9.94-18.73,80.33,80.33,0,0,1-3.62-25.08v-.16a79,79,0,0,1,3.62-24.84A56.77,56.77,0,0,1,386.72,315a43.81,43.81,0,0,1,14.94-11.8,44.36,44.36,0,0,1,37.51,0A43.81,43.81,0,0,1,454.11,315a57.06,57.06,0,0,1,9.94,18.73,88.14,88.14,0,0,1,0,50Zm-4.48-48.61a49.72,49.72,0,0,0-9.21-17,38.69,38.69,0,0,0-29.95-13.85h-.13a39.08,39.08,0,0,0-16.39,3.51,38.34,38.34,0,0,0-13.49,10.34,50.49,50.49,0,0,0-9.15,17,84.07,84.07,0,0,0,0,47,49.84,49.84,0,0,0,9.22,16.93,39.12,39.12,0,0,0,59.89,0,49.83,49.83,0,0,0,9.21-16.93,83.82,83.82,0,0,0,0-47Z" transform="translate(-165.76 -156.02)"/><path class="cls-5" d="M558.1,394.5a34.85,34.85,0,0,1-7.9,12.14,40,40,0,0,1-13,8.55,51.45,51.45,0,0,1-33.17,1,39.12,39.12,0,0,1-11.39-6.11,36.08,36.08,0,0,1-8.1-8.8,50.33,50.33,0,0,1-5.2-10.5l4.61-2a59.24,59.24,0,0,0,4.74,9.29,31.13,31.13,0,0,0,6.91,7.73,32.33,32.33,0,0,0,9.87,5.3,42.43,42.43,0,0,0,13.63,1.95,44.25,44.25,0,0,0,14.34-2.28,35.75,35.75,0,0,0,11.72-6.51,31.11,31.11,0,0,0,7.9-10.18A30.31,30.31,0,0,0,556,380.66a34,34,0,0,0-2.5-13.19A30,30,0,0,0,546.32,357,34,34,0,0,0,535,350.12a42.3,42.3,0,0,0-15.07-2.52q-10.66,0-18,3.91a35.06,35.06,0,0,0-11.45,9.12l-3-1.47,9.48-58h57V307H500.84l-7.37,44.14a39.35,39.35,0,0,1,11.25-6.35,42.43,42.43,0,0,1,15.34-2.61,46.35,46.35,0,0,1,16.58,2.85,38.17,38.17,0,0,1,12.84,7.9,35.46,35.46,0,0,1,8.29,12,39.26,39.26,0,0,1,3,15.48A38.75,38.75,0,0,1,558.1,394.5Z" transform="translate(-165.76 -156.02)"/></svg>