<svg width="100" height="100" viewBox="0 0 100 100" fill="none" xmlns="http://www.w3.org/2000/svg">
<path d="M50 29.1688C51.1051 29.1688 52.1649 28.7298 52.9463 27.9484C53.7277 27.167 54.1667 26.1072 54.1667 25.0021C54.1667 23.8971 53.7277 22.8373 52.9463 22.0559C52.1649 21.2745 51.1051 20.8355 50 20.8355C48.8949 20.8355 47.8351 21.2745 47.0537 22.0559C46.2723 22.8373 45.8333 23.8971 45.8333 25.0021C45.8333 26.1072 46.2723 27.167 47.0537 27.9484C47.8351 28.7298 48.8949 29.1688 50 29.1688V29.1688ZM52.8042 9.26464C51.9943 8.66003 51.0107 8.33337 50 8.33337C48.9893 8.33337 48.0057 8.66003 47.1958 9.26464L13.9792 34.0605C11.1667 36.1584 12.6521 40.6271 16.1583 40.6271H18.75V65.6376C16.8798 66.5247 15.2997 67.9243 14.1933 69.6738C13.0869 71.4234 12.4998 73.4509 12.5 75.5209V82.8126C12.5 84.2501 13.6667 85.4167 15.1042 85.4167H84.8958C86.3333 85.4167 87.5 84.2501 87.5 82.8126V75.5209C87.5002 73.4509 86.913 71.4234 85.8067 69.6738C84.7003 67.9243 83.1202 66.5247 81.25 65.6376V40.6251H83.8417C87.35 40.6251 88.8333 36.1563 86.0229 34.0584L52.8042 9.26464V9.26464ZM76.0417 64.5834H66.6667V40.6251H76.0417V64.5834ZM61.4583 64.5834H52.6042V40.6251H61.4583V64.5834ZM47.3958 64.5834H38.5417V40.6251H47.3958V64.5834ZM33.3333 64.5834H23.9583V40.6251H33.3333V64.5834ZM20.8625 35.4188L50 13.6688L79.1354 35.4188H20.8625ZM17.7083 75.523C17.7083 74.0035 18.3119 72.5463 19.3864 71.4718C20.4608 70.3974 21.918 69.7938 23.4375 69.7938H76.5625C78.082 69.7938 79.5392 70.3974 80.6136 71.4718C81.6881 72.5463 82.2917 74.0035 82.2917 75.523V80.2105H17.7083V75.523Z" fill="#0E84BF"/>
</svg>
