<svg width="72" height="72" viewBox="0 0 72 72" fill="none" xmlns="http://www.w3.org/2000/svg">
<g clip-path="url(#clip0_12_60)">
<path d="M72 64.2375C72.0004 65.2571 71.8 66.2668 71.41 67.209C71.0201 68.1511 70.4484 69.0071 69.7275 69.7282C69.0067 70.4493 68.1508 71.0213 67.2088 71.4115C66.2668 71.8017 65.2571 72.0024 64.2375 72.0023H7.76249C5.70413 72.0011 3.73053 71.1824 2.27568 69.7263C0.820841 68.2702 0.00388944 66.2959 0.00448641 64.2375V7.76251C0.00508246 5.70494 0.82256 3.73177 2.27727 2.27664C3.73199 0.821501 5.70491 0.00345101 7.76249 0.0022583H64.2375C66.2958 0.00225821 68.2699 0.819782 69.7256 2.27505C71.1813 3.73031 71.9994 5.70416 72 7.76251V64.2375Z" fill="#AB1D2B"/>
<path d="M33.6645 55.2825V25.5904C28.1385 29.8328 24.4204 31.9523 22.5067 31.9523C21.591 31.9523 20.781 31.5889 20.0767 30.8588C19.3669 30.132 19.0147 29.2871 19.0147 28.3309C19.0147 27.2216 19.3635 26.4083 20.0587 25.8806C20.7551 25.362 21.9836 24.6881 23.7465 23.8613C26.379 22.6215 28.485 21.3176 30.0589 19.9474C31.631 18.5819 33.0385 17.0378 34.2529 15.3461C35.4724 13.6474 36.2621 12.6034 36.6322 12.213C37.0024 11.8204 37.7032 11.6269 38.7236 11.6269C39.8756 11.6269 40.7992 12.0701 41.5001 12.9623C42.1909 13.8533 42.5396 15.084 42.5396 16.65V54.0113C42.5396 58.3841 41.0501 60.57 38.0711 60.57C36.7459 60.57 35.6794 60.1223 34.8739 59.2313C34.065 58.3391 33.6645 57.0229 33.6645 55.2836" fill="white"/>
</g>
<defs>
<clipPath id="clip0_12_60">
<rect width="72" height="72" fill="white"/>
</clipPath>
</defs>
</svg>
