<svg width="72" height="72" viewBox="0 0 72 72" fill="none" xmlns="http://www.w3.org/2000/svg">
<g clip-path="url(#clip0_12_57)">
<path d="M71.4848 63.7774C71.4854 64.7896 71.2865 65.792 70.8995 66.7274C70.5126 67.6627 69.9451 68.5127 69.2296 69.2286C68.514 69.9446 67.6644 70.5126 66.7293 70.9001C65.7942 71.2876 64.7919 71.487 63.7796 71.487H7.70288C6.69084 71.4867 5.68877 71.287 4.7539 70.8994C3.81904 70.5118 2.9697 69.9438 2.25439 69.2278C1.53909 68.5119 0.971825 67.6621 0.585012 66.7269C0.198198 65.7917 -0.000589788 64.7894 1.31437e-06 63.7774V7.70512C0.000299373 5.66208 0.811874 3.70277 2.25631 2.2579C3.70075 0.813041 5.65983 0.000894742 7.70288 0L63.7808 0C65.8242 0.00029829 67.7839 0.812182 69.2288 2.25711C70.6737 3.70203 71.4856 5.66169 71.4859 7.70512V63.7774H71.4848Z" fill="#AB1D2B"/>
<path d="M30.2794 51.9413H47.1442C48.8261 51.9413 50.1041 52.2867 50.9917 52.9763C51.8737 53.6648 52.3159 54.603 52.3159 55.7865C52.3159 56.8418 51.966 57.7362 51.2662 58.4697C50.5609 59.2009 49.5011 59.5677 48.0825 59.5677H24.3C22.6822 59.5677 21.4234 59.121 20.5189 58.2267C19.6166 57.3357 19.1644 56.2838 19.1644 55.0755C19.1644 54.3027 19.4546 53.2722 20.0385 51.9908C20.6201 50.7105 21.2546 49.7037 21.942 48.969C24.8051 45.9957 27.3949 43.4498 29.6977 41.328C32.0051 39.2063 33.6499 37.8124 34.6376 37.143C36.4095 35.8954 37.8787 34.6388 39.0465 33.3788C40.2244 32.121 41.1199 30.8273 41.733 29.5009C42.3472 28.179 42.6521 26.8785 42.6521 25.6107C42.6521 24.2314 42.3247 22.9973 41.6689 21.9105C41.0237 20.8358 40.096 19.9587 38.9869 19.3748C37.8484 18.7701 36.5769 18.4592 35.2879 18.4703C32.4664 18.4703 30.2445 19.7089 28.6301 22.185C28.4152 22.5102 28.053 23.3933 27.5501 24.8333C27.0405 26.2778 26.4701 27.387 25.8379 28.1622C25.1989 28.9395 24.2696 29.3254 23.0434 29.3254C21.9667 29.3254 21.0712 28.9699 20.3625 28.2578C19.6492 27.5468 19.296 26.5804 19.296 25.3508C19.296 23.8647 19.6267 22.3122 20.2972 20.7C20.9655 19.0823 21.96 17.6175 23.2841 16.3035C24.615 14.9884 26.2901 13.9275 28.3252 13.1198C30.3615 12.312 32.7476 11.9104 35.4836 11.9104C38.7799 11.9104 41.5879 12.4245 43.9177 13.4607C45.4142 14.1409 46.7635 15.1065 47.8901 16.3035C49.037 17.516 49.943 18.9355 50.5597 20.4863C51.192 22.0714 51.5092 23.7117 51.5092 25.416C51.5092 28.0868 50.8477 30.5145 49.5236 32.6993C48.1972 34.8885 46.845 36.5985 45.4691 37.8394C44.0865 39.078 41.7769 41.0187 38.5357 43.6725C35.2924 46.3208 33.075 48.3807 31.8645 49.842C31.347 50.4214 30.8149 51.1245 30.2794 51.9413Z" fill="white"/>
</g>
<defs>
<clipPath id="clip0_12_57">
<rect width="72" height="72" fill="white"/>
</clipPath>
</defs>
</svg>
