<svg width="72" height="72" viewBox="0 0 72 72" fill="none" xmlns="http://www.w3.org/2000/svg">
<g clip-path="url(#clip0_62_65)">
<path d="M71.6254 63.9034C71.626 64.9177 71.4267 65.9222 71.0388 66.8595C70.651 67.7968 70.0823 68.6484 69.3651 69.3658C68.648 70.0831 67.7965 70.6521 66.8593 71.0402C65.9222 71.4283 64.9177 71.6279 63.9034 71.6276H7.7175C6.70346 71.6276 5.69935 71.4278 4.76258 71.0395C3.82581 70.6513 2.97474 70.0822 2.25802 69.3648C1.54129 68.6475 0.972968 67.7959 0.585524 66.8588C0.198081 65.9217 -0.000883968 64.9174 2.95217e-06 63.9034V7.71975C-0.000144796 6.70613 0.199357 5.7024 0.587118 4.76588C0.974879 3.82935 1.5433 2.97837 2.25994 2.26153C2.97658 1.54468 3.82739 0.97601 4.7638 0.587976C5.70021 0.199942 6.70388 0.000148054 7.7175 3.27923e-07H63.9023C64.9162 -0.000295201 65.9203 0.199164 66.8572 0.586985C67.794 0.974807 68.6453 1.54339 69.3624 2.26027C70.0795 2.97714 70.6483 3.82826 71.0364 4.76501C71.4245 5.70176 71.6243 6.70579 71.6243 7.71975V63.9034H71.6254Z" fill="#AB1D2B"/>
<path d="M34.1584 30.9746C36.1429 30.9746 37.8574 30.3885 39.294 29.2252C40.7273 28.0586 41.445 26.3891 41.445 24.2066C41.445 22.5472 40.8724 21.1151 39.7294 19.9204C38.5853 18.7189 37.0406 18.1204 35.0955 18.1204C33.7826 18.1204 32.6981 18.3049 31.8488 18.6705C30.9926 19.0384 30.3176 19.5244 29.8226 20.1274C29.3231 20.7304 28.8551 21.5089 28.4153 22.4595C28.0004 23.3502 27.5961 24.2457 27.2025 25.146C26.9831 25.5994 26.595 25.956 26.0314 26.2136C25.4723 26.4724 24.8265 26.6029 24.0908 26.6029C23.2256 26.6029 22.4359 26.253 21.7103 25.551C20.9891 24.849 20.628 23.9164 20.628 22.7509C20.628 21.6281 20.9711 20.4469 21.6461 19.2094C22.3256 17.9685 23.3201 16.785 24.6274 15.6622C25.9324 14.5406 27.5558 13.6384 29.4986 12.9566C31.4393 12.2782 33.6083 11.9385 36.0068 11.9385C38.0993 11.9385 40.0084 12.2265 41.7353 12.7991C43.4644 13.3684 44.9606 14.1941 46.2353 15.2719C47.5088 16.3541 48.4695 17.6062 49.1175 19.0294C49.7666 20.4547 50.0873 21.9859 50.0873 23.625C50.0873 25.7827 49.6181 27.6356 48.681 29.1757C47.7394 30.7226 46.3961 32.2267 44.649 33.6982C46.332 34.605 47.7506 35.6411 48.906 36.8044C50.0625 37.971 50.9299 39.2591 51.5126 40.6721C52.0954 42.0896 52.3834 43.6162 52.3834 45.2565C52.3834 47.2196 51.9908 49.1209 51.2055 50.9512C50.4158 52.7861 49.2548 54.4207 47.7225 55.8574C46.1948 57.2906 44.3734 58.4156 42.2685 59.2234C40.1636 60.0334 37.8394 60.4372 35.2924 60.4372C32.7026 60.4372 30.3773 59.9726 28.3331 59.0422C26.28 58.1186 24.5903 56.9565 23.2661 55.566C21.9353 54.1766 20.9318 52.7321 20.2523 51.2449C19.5728 49.7542 19.2364 48.5257 19.2364 47.5537C19.2364 46.3027 19.6414 45.2925 20.4458 44.5275C21.2558 43.7614 22.2638 43.3788 23.4776 43.3788C24.0806 43.3788 24.6634 43.5544 25.2225 43.9144C25.7861 44.2676 26.154 44.6951 26.325 45.1901C27.45 48.1939 28.6504 50.4191 29.9329 51.876C31.2199 53.3329 33.0244 54.063 35.3565 54.063C36.6964 54.063 37.9856 53.7322 39.2254 53.0741C40.4674 52.4171 41.4979 51.4406 42.3011 50.1446C43.1111 48.8497 43.515 47.3512 43.515 45.6457C43.515 43.1201 42.8209 41.1345 41.4428 39.7057C40.0601 38.2691 38.1375 37.5525 35.6783 37.5525C35.2429 37.5525 34.5803 37.5941 33.6713 37.6819C32.7623 37.7674 32.1795 37.809 31.9241 37.809C30.7361 37.809 29.8181 37.5131 29.1701 36.9202C28.5233 36.3262 28.2015 35.5027 28.2015 34.443C28.2015 33.4091 28.5908 32.5721 29.3636 31.9353C30.1421 31.2975 31.2975 30.9802 32.8309 30.9802H34.1584V30.9746Z" fill="white"/>
</g>
<defs>
<clipPath id="clip0_62_65">
<rect width="72" height="72" fill="white"/>
</clipPath>
</defs>
</svg>
