<svg width="72" height="72" viewBox="0 0 72 72" fill="none" xmlns="http://www.w3.org/2000/svg">
<g clip-path="url(#clip0_62_87)">
<path d="M7.62939e-06 7.76255C-0.000579834 6.74327 0.199631 5.73386 0.589218 4.79197C0.978798 3.85008 1.55013 2.99417 2.27055 2.27312C2.99097 1.55206 3.84639 0.979996 4.78794 0.589592C5.72949 0.199188 6.73873 -0.00189972 7.75801 -0.00219727L64.2443 -0.00219727C66.3026 -0.00100708 68.2762 0.817665 69.7311 2.27377C71.1859 3.72988 72.0029 5.7042 72.0023 7.76255L72.0023 64.2376C72.0017 66.2951 71.1842 68.2683 69.7295 69.7234C68.2748 71.1786 66.3018 71.9966 64.2443 71.9978L7.75801 71.9978C5.70026 71.9972 3.72698 71.1793 2.27214 69.7241C0.817291 68.2688 7.62939e-06 66.2953 7.62939e-06 64.2376L7.62939e-06 7.76255Z" fill="#AB1D2B"/>
<path d="M28.422 33.6489C29.8541 31.9524 31.4606 30.6744 33.2336 29.8149C35.0032 28.9565 36.9686 28.5267 39.1252 28.5267C41.1716 28.5267 43.0785 28.9239 44.8481 29.7181C46.5992 30.4917 48.1672 31.6265 49.4494 33.0481C50.742 34.4724 51.7399 36.1351 52.4385 38.0375C53.1355 39.9571 53.4882 41.9847 53.4802 44.027C53.4802 46.2646 53.0876 48.3931 52.3024 50.4057C51.5239 52.415 50.4022 54.1621 48.9431 55.6404C47.4862 57.1197 45.7526 58.2729 43.7389 59.0997C41.7274 59.9266 39.5032 60.3395 37.0665 60.3395C34.2619 60.3395 31.7599 59.8287 29.5639 58.805C27.3796 57.7948 25.4753 56.2662 24.0165 54.3522C22.5124 52.406 21.3649 49.9535 20.5526 46.9947C19.7494 44.0349 19.3466 40.6846 19.3466 36.9451C19.3466 32.768 19.7775 29.0847 20.6246 25.8987C21.4672 22.7127 22.7047 20.0364 24.327 17.8719C25.9492 15.7096 27.8876 14.0997 30.1545 13.0422C32.4157 11.9904 34.9807 11.4639 37.8472 11.4639C40.6766 11.4639 43.1359 12.0016 45.2272 13.076C47.313 14.1515 48.9015 15.4925 49.9894 17.0911C51.0761 18.6909 51.6195 20.2287 51.6195 21.7081C51.6195 22.6171 51.282 23.4372 50.6081 24.1561C49.932 24.8727 49.0736 25.2316 48.0274 25.2316C47.0734 25.2316 46.2161 24.9627 45.4545 24.4328C44.6917 23.8985 44.1157 23.0997 43.7231 22.0332C43.2725 20.7646 42.4426 19.6653 41.346 18.8844C40.2526 18.0975 38.9366 17.6801 37.5896 17.693C36.3476 17.693 35.1731 18.008 34.0661 18.638C32.9512 19.2702 32.0085 20.1612 31.2266 21.3144C29.6629 23.642 28.7269 27.7527 28.422 33.6489ZM29.1712 43.6332C29.1712 45.1104 29.376 46.4761 29.7742 47.7316C30.1759 48.9804 30.7417 50.0615 31.4719 50.975C32.1779 51.8698 33.0665 52.6038 34.0785 53.1282C35.104 53.6539 36.2415 53.9234 37.3939 53.9135C39.4582 53.9135 41.2121 53.0259 42.6487 51.2529C44.0831 49.4787 44.802 47.1354 44.802 44.2194C44.802 41.3281 44.0831 39.0219 42.6487 37.3051C41.2121 35.585 39.3964 34.7244 37.1959 34.7244C35.8481 34.7244 34.5589 35.0787 33.3281 35.7864C32.0996 36.494 31.1017 37.5222 30.3289 38.8711C29.556 40.22 29.1712 41.8062 29.1712 43.6332Z" fill="white"/>
</g>
<defs>
<clipPath id="clip0_62_87">
<rect width="72" height="72" fill="white"/>
</clipPath>
</defs>
</svg>
