<svg width="72" height="72" viewBox="0 0 72 72" fill="none" xmlns="http://www.w3.org/2000/svg">
<g clip-path="url(#clip0_62_56)">
<path d="M72 64.2375C72.0006 65.2568 71.8003 66.2664 71.4107 67.2083C71.021 68.1503 70.4496 69.0062 69.7291 69.7273C69.0085 70.4484 68.153 71.0204 67.2113 71.4108C66.2696 71.8011 65.2602 72.0021 64.2409 72.0022H7.75461C6.73538 72.0018 5.7262 71.8006 4.78472 71.4101C3.84324 71.0197 2.98788 70.4476 2.26748 69.7266C1.54708 69.0056 0.975757 68.1497 0.586121 67.2079C0.196485 66.2661 -0.00383002 65.2567 -0.00338672 64.2375V7.76247C-0.00338691 5.70461 0.813864 3.73099 2.26867 2.27555C3.72348 0.820102 5.69675 0.00199348 7.75461 0.00109863H64.2409C68.5271 0.00109863 72 3.47735 72 7.76247V64.2375Z" fill="#AB1D2B"/>
<path d="M25.6759 11.9767H47.3659C49.4483 11.9767 50.9569 12.3019 51.8884 12.9532C52.8199 13.6057 53.2845 14.679 53.2845 16.1775C53.2845 17.0899 52.7378 18.2925 51.642 19.7932C50.4144 21.4642 49.1648 23.1188 47.8935 24.7567C46.4974 26.5691 45.0506 28.8225 43.5645 31.518C42.0773 34.2112 40.7138 37.4996 39.4785 41.3831C38.9543 43.0999 38.5875 44.5219 38.3726 45.6502C38.1028 47.1106 37.8631 48.5765 37.6538 50.0467C37.395 51.849 37.1678 53.2271 36.9698 54.1834C36.5164 56.3974 35.8718 57.9319 35.0336 58.7914C34.1966 59.6509 33.084 60.0795 31.6946 60.0795C30.3739 60.0795 29.3085 59.6149 28.5075 58.6946C27.702 57.7744 27.297 56.412 27.297 54.6052C27.297 53.2159 27.5918 51.3304 28.1801 48.9352C28.7651 46.5502 29.718 43.6905 31.0466 40.3582C32.3674 37.0249 34.0245 33.6082 36.0146 30.0982C37.998 26.5927 40.356 23.103 43.0965 19.6301H25.6714C23.85 19.6301 22.4843 19.2982 21.5865 18.6367C20.6831 17.973 20.2365 16.9369 20.2365 15.525C20.2365 14.0265 20.7101 13.0624 21.6686 12.6259C22.6193 12.1939 23.9591 11.9767 25.6714 11.9767" fill="white"/>
</g>
<defs>
<clipPath id="clip0_62_56">
<rect width="72" height="72" fill="white"/>
</clipPath>
</defs>
</svg>
