<svg width="72" height="72" viewBox="0 0 72 72" fill="none" xmlns="http://www.w3.org/2000/svg">
<g clip-path="url(#clip0_62_53)">
<path d="M72 64.2375C72.0006 65.257 71.8003 66.2666 71.4106 67.2086C71.0208 68.1506 70.4493 69.0067 69.7286 69.7277C69.008 70.4488 68.1523 71.0208 67.2105 71.4111C66.2687 71.8014 65.2592 72.0023 64.2397 72.0023H7.76474C6.74535 72.002 5.736 71.8009 4.79433 71.4105C3.85265 71.0201 2.99708 70.4481 2.27648 69.7271C1.55587 69.0061 0.984339 68.1502 0.59451 67.2083C0.204681 66.2664 0.00419089 65.2569 0.00448641 64.2375V7.76251C0.00508283 5.70455 0.82287 3.73104 2.27807 2.27584C3.73327 0.820641 5.70677 0.00285473 7.76474 0.0022583H64.2397C66.2979 0.0022583 68.2717 0.819854 69.7271 2.27518C71.1824 3.73051 72 5.70436 72 7.76251V64.2375Z" fill="#AB1D2B"/>
<path d="M20.7281 24.12C20.7281 21.9465 21.3176 19.8956 22.509 17.9708C23.6936 16.0436 25.4295 14.5046 27.7268 13.356C30.024 12.2006 32.7026 11.6246 35.7671 11.6246C38.3591 11.6246 40.6316 11.9633 42.5846 12.6349C44.5444 13.311 46.1768 14.238 47.4806 15.4226C48.7845 16.6118 49.7531 17.9505 50.3854 19.44C51.0154 20.9284 51.3326 22.5113 51.3326 24.1853C51.3326 26.3183 50.7859 28.2206 49.6834 29.8946C48.5865 31.5686 46.944 32.9389 44.7716 34.0031C46.6211 34.7231 48.1579 35.6659 49.3751 36.828C50.5748 37.9628 51.5144 39.3442 52.1291 40.8769C52.7524 42.4069 53.0595 44.1101 53.0595 45.981C53.0595 48.7226 52.3969 51.2055 51.0728 53.4353C49.7441 55.6661 47.7934 57.4133 45.2329 58.6733C42.6656 59.9344 39.6383 60.5644 36.1654 60.5644C32.5541 60.5644 29.4671 59.9344 26.8965 58.6733C24.3338 57.4133 22.3965 55.6751 21.0915 53.469C19.7854 51.2606 19.1351 48.7834 19.1351 46.0474C19.1351 40.1951 21.8936 36.1811 27.4174 34.002C22.959 31.9208 20.7315 28.6256 20.7315 24.12H20.7281ZM44.1248 45.72C44.1248 44.0235 43.7783 42.5453 43.0841 41.2808C42.4111 40.0457 41.3885 39.0368 40.1445 38.3805C38.8823 37.7044 37.4681 37.3703 35.9021 37.3703C33.687 37.3703 31.824 38.106 30.3233 39.5876C28.8225 41.0636 28.0733 43.1314 28.0733 45.7875C28.0733 47.484 28.4254 48.9791 29.1308 50.2706C29.8406 51.5655 30.8025 52.5679 32.0198 53.2755C33.237 53.9831 34.5983 54.3353 36.1013 54.3353C37.6178 54.3353 38.988 53.9764 40.2075 53.2575C41.4248 52.5409 42.3855 51.5284 43.0841 50.2223C43.7783 48.9161 44.1248 47.4176 44.1248 45.7223V45.72ZM35.9685 17.8583C33.9199 17.8583 32.274 18.4928 31.023 19.7651C29.7731 21.0375 29.1521 22.6744 29.1521 24.6769C29.1521 26.5264 29.79 28.0631 31.0736 29.295C32.3573 30.5213 34.0076 31.1355 36.0338 31.1355C37.0541 31.1355 37.9845 30.9713 38.8226 30.6473C39.6224 30.3454 40.3532 29.8855 40.9714 29.295C41.5745 28.7148 42.048 28.0136 42.3608 27.2374C42.6893 26.4431 42.8535 25.5679 42.8535 24.6105C42.8535 23.3291 42.5633 22.1783 41.9828 21.1511C41.4146 20.1357 40.5736 19.2994 39.555 18.7369C38.511 18.1508 37.3174 17.8583 35.9685 17.8583" fill="white"/>
</g>
<defs>
<clipPath id="clip0_62_53">
<rect width="72" height="72" fill="white"/>
</clipPath>
</defs>
</svg>
