<svg width="72" height="72" viewBox="0 0 72 72" fill="none" xmlns="http://www.w3.org/2000/svg">
<g clip-path="url(#clip0_12_85)">
<path d="M72 64.2375C72.0004 65.2571 71.8 66.2668 71.41 67.2089C71.0201 68.151 70.4484 69.0071 69.7275 69.7282C69.0067 70.4492 68.1508 71.0212 67.2088 71.4114C66.2668 71.8016 65.2571 72.0023 64.2375 72.0022H7.76249C5.70413 72.001 3.73053 71.1823 2.27568 69.7262C0.820841 68.2701 0.00388944 66.2958 0.00448641 64.2375V7.76245C0.00508246 5.70487 0.82256 3.73171 2.27727 2.27658C3.73199 0.82144 5.70491 0.00338998 7.76249 0.00219727H64.2375C66.2958 0.00219718 68.2699 0.819721 69.7256 2.27499C71.1813 3.73025 71.9994 5.70409 72 7.76245V64.2375Z" fill="#565859"/>
<path d="M33.6645 55.2826V25.5905C28.1385 29.8328 24.4204 31.9523 22.5067 31.9523C21.591 31.9523 20.781 31.589 20.0767 30.8588C19.3669 30.1321 19.0147 29.2872 19.0147 28.331C19.0147 27.2217 19.3635 26.4083 20.0587 25.8807C20.7551 25.3621 21.9836 24.6882 23.7465 23.8613C26.379 22.6216 28.485 21.3177 30.0589 19.9475C31.631 18.582 33.0385 17.0378 34.2529 15.3462C35.4724 13.6475 36.2621 12.6035 36.6322 12.2131C37.0024 11.8205 37.7032 11.627 38.7236 11.627C39.8756 11.627 40.7992 12.0702 41.5001 12.9623C42.1909 13.8533 42.5396 15.0841 42.5396 16.6501V54.0113C42.5396 58.3842 41.0501 60.5701 38.0711 60.5701C36.7459 60.5701 35.6794 60.1223 34.8739 59.2313C34.065 58.3392 33.6645 57.0229 33.6645 55.2837" fill="white"/>
</g>
<defs>
<clipPath id="clip0_12_85">
<rect width="72" height="72" fill="white"/>
</clipPath>
</defs>
</svg>
