<svg width="72" height="72" viewBox="0 0 72 72" fill="none" xmlns="http://www.w3.org/2000/svg">
<g clip-path="url(#clip0_62_78)">
<path d="M71.766 64.0283C71.7667 65.0447 71.5671 66.0513 71.1785 66.9906C70.79 67.9298 70.2201 68.7833 69.5014 69.5021C68.7828 70.2209 67.9295 70.7911 66.9904 71.1799C66.0513 71.5688 65.0447 71.7687 64.0282 71.7682H7.73325C6.71718 71.7681 5.71109 71.5677 4.77248 71.1786C3.83387 70.7895 2.98112 70.2193 2.26296 69.5005C1.5448 68.7817 0.975311 67.9285 0.587023 66.9895C0.198736 66.0506 -0.000736926 65.0443 2.0457e-06 64.0283V7.73438C2.024e-06 5.68329 0.814717 3.71619 2.26495 2.26574C3.71518 0.8153 5.68216 0.000298667 7.73325 3.27279e-07H64.0294C65.0453 -0.000295185 66.0513 0.199534 66.99 0.588077C67.9287 0.976619 68.7817 1.54626 69.5003 2.26448C70.2188 2.9827 70.7888 3.83542 71.1777 4.77395C71.5667 5.71248 71.767 6.71844 71.7671 7.73438V64.0283H71.766Z" fill="#565859"/>
<path d="M46.395 19.8945H30.987L29.1353 30.4031C32.2054 28.7606 35.037 27.9382 37.6358 27.9382C39.7103 27.9382 41.6486 28.3286 43.4576 29.1071C45.261 29.8856 46.8439 30.9611 48.2108 32.3347C49.5776 33.7084 50.6441 35.3351 51.4238 37.2172C52.1989 39.1005 52.5881 41.1221 52.5881 43.2844C52.5881 46.4186 51.8873 49.2716 50.4799 51.8456C49.0759 54.4207 47.0475 56.4626 44.4015 57.9757C41.7521 59.4911 38.6966 60.2482 35.2373 60.2482C31.3661 60.2482 28.2251 59.5339 25.8143 58.1062C23.4034 56.6786 21.699 55.0417 20.691 53.19C19.6819 51.3427 19.1835 49.725 19.1835 48.3424C19.1835 47.4986 19.5278 46.6976 20.2354 45.9416C20.9363 45.1834 21.816 44.8054 22.878 44.8054C24.6926 44.8054 26.0438 45.8572 26.9359 47.9509C27.7976 49.878 28.9643 51.372 30.4346 52.443C31.8596 53.4993 33.5895 54.0635 35.3633 54.0506C37.0294 54.0506 38.4885 53.6164 39.7463 52.7524C41.0006 51.8884 41.9659 50.6981 42.651 49.1861C43.3283 47.6685 43.6691 45.9517 43.6691 44.0269C43.6691 41.9501 43.3035 40.1782 42.5655 38.7079C41.832 37.2364 40.8465 36.1395 39.6135 35.4139C38.3794 34.6905 37.0091 34.3271 35.496 34.3271C33.6353 34.3271 32.3089 34.5521 31.5056 35.0077C30.708 35.4645 29.5549 36.2576 28.0496 37.3905C26.5466 38.5267 25.3091 39.0971 24.3416 39.0971C23.2774 39.0971 22.338 38.7135 21.5156 37.9474C20.6921 37.1745 20.2815 36.3071 20.2815 35.3329C20.2815 35.2271 20.4053 34.4902 20.6404 33.129L23.3674 17.5905C23.6678 15.7331 24.2269 14.3797 25.0515 13.5371C25.8694 12.6945 27.2115 12.2715 29.0723 12.2715H46.2004C49.5731 12.2715 51.2618 13.5596 51.2618 16.1336C51.2618 17.2552 50.8466 18.1642 50.0288 18.8584C49.2019 19.5457 47.9891 19.8922 46.395 19.8922" fill="white"/>
</g>
<defs>
<clipPath id="clip0_62_78">
<rect width="72" height="72" fill="white"/>
</clipPath>
</defs>
</svg>
