<svg width="104" height="96" viewBox="0 0 104 96" fill="none" xmlns="http://www.w3.org/2000/svg">
<path fill-rule="evenodd" clip-rule="evenodd" d="M9.45841 52.8C5.10972 52.8 3.06772 47.3424 6.31979 44.4144L48.8614 6.01441C49.7264 5.23436 50.8431 4.80353 52 4.80353C53.1569 4.80353 54.2736 5.23436 55.1386 6.01441L97.6802 44.4144C100.932 47.3424 98.8903 52.8 94.5416 52.8H89.8147V86.4C89.8147 87.6731 89.3167 88.894 88.4303 89.7941C87.5438 90.6943 86.3415 91.2 85.0879 91.2H18.9121C17.6585 91.2 16.4562 90.6943 15.5697 89.7941C14.6833 88.894 14.1853 87.6731 14.1853 86.4V52.8H9.45841ZM37.8195 81.6V57.6C37.8195 56.327 38.3175 55.1061 39.2039 54.2059C40.0904 53.3057 41.2927 52.8 42.5463 52.8H61.4537C62.7073 52.8 63.9096 53.3057 64.7961 54.2059C65.6825 55.1061 66.1805 56.327 66.1805 57.6V81.6H80.3611V48C80.3609 47.1461 80.5851 46.3076 81.0105 45.571C81.436 44.8344 82.0472 44.2263 82.7812 43.8096L52 16.0176L21.2188 43.8096C21.9528 44.2263 22.564 44.8344 22.9894 45.571C23.4149 46.3076 23.6391 47.1461 23.6389 48V81.6H37.8195ZM47.2732 81.6V62.4H56.7268V81.6H47.2732Z" fill="#DE2638"/>
</svg>
