<svg width="72" height="72" viewBox="0 0 72 72" fill="none" xmlns="http://www.w3.org/2000/svg">
<g clip-path="url(#clip0_62_41)">
<path d="M72 64.2375C72.0006 65.257 71.8003 66.2666 71.4106 67.2086C71.0209 68.1506 70.4493 69.0067 69.7287 69.7277C69.008 70.4488 68.1523 71.0208 67.2105 71.4111C66.2687 71.8014 65.2592 72.0023 64.2398 72.0023H7.7535C6.73426 72.0018 5.72509 71.8006 4.78361 71.4102C3.84212 71.0197 2.98676 70.4476 2.26637 69.7266C1.54597 69.0056 0.974643 68.1497 0.585007 67.2079C0.195371 66.2661 -0.00494392 65.2567 -0.00450061 64.2375V7.76251C-0.0045007 5.70475 0.812786 3.73124 2.26763 2.27598C3.72247 0.820714 5.69574 0.00285492 7.7535 0.0022583H64.2398C66.2979 0.0022583 68.2717 0.819854 69.7271 2.27518C71.1824 3.73051 72 5.70436 72 7.76251V64.2375Z" fill="#0E84BF"/>
<path d="M19.2037 54.27V26.145C13.9702 30.1624 10.4467 32.1694 8.6355 32.1694C7.767 32.1694 7.00087 31.8285 6.33375 31.1366C5.65987 30.447 5.32687 29.6471 5.32687 28.7426C5.32687 27.6907 5.65537 26.9201 6.31575 26.4206C6.97612 25.9301 8.13825 25.2956 9.81 24.507C12.3019 23.3325 14.2976 22.0984 15.7871 20.8001C17.277 19.5083 18.6099 18.0459 19.7584 16.443C20.9137 14.8331 21.663 13.8442 22.0084 13.4741C22.3594 13.1017 23.022 12.9195 23.9884 12.9195C25.0819 12.9195 25.9549 13.3414 26.6175 14.184C27.2722 15.0311 27.6019 16.1955 27.6019 17.6782V53.0674C27.6019 57.2096 26.19 59.2807 23.3685 59.2807C22.1141 59.2807 21.1072 58.8544 20.34 58.0117C19.5806 57.1635 19.1992 55.917 19.1992 54.2711" fill="white"/>
<path d="M66.8587 36.3375C66.8587 39.7125 66.654 42.6206 66.2422 45.054C65.8305 47.4818 65.0644 49.6913 63.954 51.669C62.5489 54.099 60.7399 55.9699 58.5124 57.294C56.2905 58.6114 53.8166 59.2706 51.0952 59.2706C47.9666 59.2706 45.1552 58.3853 42.6724 56.6145C40.1929 54.8426 38.322 52.3924 37.0665 49.257C36.4286 47.5493 35.9584 45.6559 35.6602 43.587C35.3587 41.5159 35.2125 39.2771 35.2125 36.864C35.2125 33.7545 35.3745 30.9544 35.7052 28.4603C36.0337 25.9684 36.5479 23.8219 37.251 22.0298C38.4637 19.0631 40.2334 16.8019 42.5486 15.246C44.8684 13.6946 47.6347 12.9139 50.8522 12.9139C52.9751 12.9139 54.9 13.2604 56.6291 13.9511C58.344 14.6302 59.897 15.662 61.1876 16.9796C62.496 18.3083 63.6064 19.9508 64.512 21.906C66.0735 25.3148 66.8587 30.1196 66.8587 36.3409V36.3375ZM58.392 35.7244C58.392 31.9511 58.1614 28.8686 57.7125 26.469C57.258 24.066 56.4952 22.2514 55.4242 21.0285C54.351 19.8023 52.8694 19.188 50.9737 19.188C48.2512 19.188 46.3612 20.5583 45.3037 23.2988C44.2451 26.0393 43.7119 30.2614 43.7119 35.9708C43.7119 39.8441 43.9402 43.02 44.3947 45.4894C44.8447 47.9633 45.6097 49.8308 46.6807 51.1009C47.7517 52.3654 49.2019 52.9999 51.0401 52.9999C52.9335 52.9999 54.4151 52.3406 55.4872 51.0221C56.5605 49.7025 57.3097 47.817 57.7485 45.3634C58.1872 42.9098 58.3999 39.7046 58.3999 35.7221" fill="white"/>
</g>
<defs>
<clipPath id="clip0_62_41">
<rect width="72" height="72" fill="white"/>
</clipPath>
</defs>
</svg>
