<svg width="72" height="72" viewBox="0 0 72 72" fill="none" xmlns="http://www.w3.org/2000/svg">
<g clip-path="url(#clip0_62_23)">
<path d="M71.9055 64.1531C71.9064 65.1713 71.7066 66.1797 71.3176 67.1206C70.9286 68.0615 70.3579 68.9166 69.6383 69.6369C68.9186 70.3571 68.0641 70.9285 67.1235 71.3184C66.1829 71.7082 65.1747 71.9089 64.1565 71.9089H7.74788C6.72987 71.9084 5.72193 71.7075 4.7816 71.3174C3.84127 70.9274 2.98698 70.356 2.26751 69.6358C1.54803 68.9156 0.977476 68.0607 0.588415 67.12C0.199354 66.1793 -0.000589793 65.1711 1.30679e-06 64.1531V7.75012C0.000299367 5.69515 0.816615 3.72438 2.26949 2.27108C3.72237 0.817782 5.6929 0.000894745 7.74788 0L64.1565 0C65.1742 -1.07252e-08 66.1819 0.200471 67.1222 0.589965C68.0624 0.979459 68.9167 1.55035 69.6363 2.27003C70.3558 2.98971 70.9266 3.84408 71.316 4.78437C71.7053 5.72465 71.9056 6.73242 71.9055 7.75012V64.1531V64.1531Z" fill="#0E84BF"/>
<path d="M38.8755 55.5525V49.509H22.5596C20.4986 49.509 18.9551 49.041 17.9302 48.1095C16.9009 47.1769 16.3834 45.909 16.3834 44.3081C16.3834 43.8953 16.461 43.4779 16.614 43.056C16.7636 42.6319 16.9909 42.1898 17.2957 41.724C17.6006 41.2571 17.9145 40.8071 18.2362 40.374C18.5636 39.9409 18.9562 39.4121 19.44 38.7821L36.6637 15.7388C37.7887 14.2234 38.7157 13.1243 39.4425 12.4391C40.1704 11.7574 41.0366 11.4188 42.0615 11.4188C45.3521 11.4188 47.0002 13.302 47.0002 17.0663V42.2235H48.3997C50.0647 42.2235 51.399 42.4508 52.4104 42.9053C53.4184 43.3598 53.9212 44.3588 53.9212 45.8955C53.9212 47.1521 53.5151 48.0679 52.6837 48.6405C51.8636 49.2176 50.6261 49.5045 48.978 49.5045H46.9991V55.548C46.9991 57.2175 46.6279 58.4595 45.8899 59.2695C45.1575 60.0806 44.172 60.489 42.9345 60.489C41.724 60.489 40.743 60.0716 39.9926 59.2369C39.2467 58.401 38.8755 57.1714 38.8755 55.548V55.5525ZM24.8962 42.2224H38.8744V23.3404L24.8962 42.2224Z" fill="white"/>
</g>
<defs>
<clipPath id="clip0_62_23">
<rect width="72" height="72" fill="white"/>
</clipPath>
</defs>
</svg>
