<svg width="72" height="72" viewBox="0 0 72 72" fill="none" xmlns="http://www.w3.org/2000/svg">
<g clip-path="url(#clip0_62_35)">
<path d="M72 64.2375C72.0006 65.2568 71.8004 66.2662 71.4108 67.2081C71.0212 68.15 70.4499 69.0059 69.7295 69.7269C69.009 70.448 68.1536 71.0201 67.2121 71.4105C66.2705 71.8009 65.2613 72.002 64.242 72.0023H7.75575C5.6974 72.0011 3.72379 71.1824 2.26895 69.7263C0.814104 68.2702 -0.00284731 66.2959 -0.00225034 64.2375V7.76251C-0.00165429 5.70493 0.815824 3.73177 2.27054 2.27664C3.72525 0.821501 5.69818 0.00345101 7.75575 0.0022583H64.242C66.2998 0.00285492 68.273 0.820714 69.7279 2.27598C71.1827 3.73124 72 5.70475 72 7.76251V64.2375Z" fill="#0E84BF"/>
<path d="M43.578 38.3513C42.1459 40.0478 40.5394 41.3258 38.7664 42.1853C36.9968 43.0436 35.0314 43.4734 32.8748 43.4734C30.8284 43.4734 28.9215 43.0763 27.1519 42.282C25.4008 41.5084 23.8328 40.3736 22.5506 38.952C21.258 37.5278 20.2601 35.865 19.5615 33.9626C18.8645 32.043 18.5118 30.0154 18.5198 27.9731C18.5198 25.7355 18.9124 23.607 19.6976 21.5944C20.4761 19.5851 21.5978 17.838 23.0569 16.3598C24.5138 14.8804 26.2474 13.7273 28.2611 12.9004C30.2726 12.0735 32.4968 11.6606 34.9335 11.6606C37.7381 11.6606 40.2401 12.1714 42.4361 13.1951C44.6204 14.2053 46.5247 15.7339 47.9835 17.6479C49.4876 19.5941 50.6351 22.0466 51.4474 25.0054C52.2506 27.9653 52.6534 31.3155 52.6534 35.055C52.6534 39.2321 52.2225 42.9154 51.3754 46.1014C50.5328 49.2874 49.2953 51.9638 47.673 54.1283C46.0508 56.2905 44.1124 57.9004 41.8455 58.9579C39.5843 60.0098 37.0193 60.5363 34.1528 60.5363C31.3234 60.5363 28.8641 59.9985 26.7728 58.9241C24.687 57.8486 23.0985 56.5076 22.0106 54.909C20.9239 53.3093 20.3805 51.7714 20.3805 50.292C20.3805 49.383 20.718 48.5629 21.3919 47.844C22.068 47.1274 22.9264 46.7685 23.9726 46.7685C24.9266 46.7685 25.7839 47.0374 26.5455 47.5673C27.3083 48.1016 27.8843 48.9004 28.2769 49.9669C28.7275 51.2355 29.5574 52.3348 30.654 53.1158C31.7474 53.9027 33.0634 54.32 34.4104 54.3071C35.6524 54.3071 36.8269 53.9921 37.9339 53.3621C39.0488 52.7299 39.9915 51.8389 40.7734 50.6858C42.3371 48.3581 43.2731 44.2474 43.578 38.3513ZM42.8288 28.3669C42.8288 26.8898 42.624 25.524 42.2258 24.2685C41.8241 23.0198 41.2583 21.9386 40.5281 21.0251C39.8221 20.1303 38.9335 19.3963 37.9215 18.8719C36.896 18.3462 35.7585 18.0768 34.6061 18.0866C32.5418 18.0866 30.7879 18.9743 29.3513 20.7473C27.9169 22.5214 27.198 24.8648 27.198 27.7808C27.198 30.672 27.9169 32.9783 29.3513 34.695C30.7879 36.4151 32.6036 37.2758 34.8041 37.2758C36.1519 37.2758 37.4411 36.9214 38.6719 36.2138C39.9004 35.5061 40.8983 34.4779 41.6711 33.129C42.444 31.7801 42.8288 30.1939 42.8288 28.3669" fill="white"/>
</g>
<defs>
<clipPath id="clip0_62_35">
<rect width="72" height="72" fill="white"/>
</clipPath>
</defs>
</svg>
